<svg width="24" height="24" viewBox="0 0 24 24" fill="none" xmlns="http://www.w3.org/2000/svg">
<g clip-path="url(#clip0_2248_5024)">
<path fill-rule="evenodd" clip-rule="evenodd" d="M6.89961 4.89961V18.3179L11.5004 15.2508C11.8027 15.0492 12.1965 15.0492 12.4988 15.2508L17.0996 18.3179V4.89961H6.89961ZM5.60724 3.54351C5.92097 3.25251 6.33293 3.09961 6.74961 3.09961H17.2496C17.6663 3.09961 18.0782 3.25251 18.392 3.54351C18.708 3.83662 18.8996 4.24929 18.8996 4.69526V19.9996C18.8996 20.3315 18.7169 20.6365 18.4243 20.7931C18.1316 20.9497 17.7765 20.9326 17.5004 20.7485L11.9996 17.0813L6.49884 20.7485C6.22267 20.9326 5.86758 20.9497 5.57494 20.7931C5.2823 20.6365 5.09961 20.3315 5.09961 19.9996V4.69526C5.09961 4.24929 5.29123 3.83662 5.60724 3.54351Z" fill="#212121"/>
</g>
<defs>
<clipPath id="clip0_2248_5024">
<rect width="24" height="24" fill="white"/>
</clipPath>
</defs>
</svg>
