<svg width="24" height="24" viewBox="0 0 24 24" fill="none" xmlns="http://www.w3.org/2000/svg">
<g clip-path="url(#clip0_2248_5023)">
<path d="M6.74961 3.09961C6.33293 3.09961 5.92097 3.25251 5.60724 3.54351C5.29123 3.83662 5.09961 4.24929 5.09961 4.69526V19.9996C5.09961 20.3315 5.2823 20.6365 5.57494 20.7931C5.86758 20.9497 6.22267 20.9326 6.49884 20.7485L11.9996 17.0813L17.5004 20.7485C17.7765 20.9326 18.1316 20.9497 18.4243 20.7931C18.7169 20.6365 18.8996 20.3315 18.8996 19.9996V4.69526C18.8996 4.24929 18.708 3.83662 18.392 3.54351C18.0782 3.25251 17.6663 3.09961 17.2496 3.09961H6.74961Z" fill="#00B8A8"/>
</g>
<defs>
<clipPath id="clip0_2248_5023">
<rect width="24" height="24" fill="white"/>
</clipPath>
</defs>
</svg>
