<svg width="14" height="18" viewBox="0 0 14 18" fill="none" xmlns="http://www.w3.org/2000/svg">
<path fill-rule="evenodd" clip-rule="evenodd" d="M1.89961 1.89961V15.3179L6.50038 12.2508C6.80269 12.0492 7.19653 12.0492 7.49884 12.2508L12.0996 15.3179V1.89961H1.89961ZM0.60724 0.543507C0.92097 0.252511 1.33293 0.0996094 1.74961 0.0996094H12.2496C12.6663 0.0996094 13.0782 0.25251 13.392 0.543507C13.708 0.836621 13.8996 1.24929 13.8996 1.69526V16.9996C13.8996 17.3315 13.7169 17.6365 13.4243 17.7931C13.1316 17.9497 12.7765 17.9326 12.5004 17.7485L6.99961 14.0813L1.49884 17.7485C1.22267 17.9326 0.867579 17.9497 0.574937 17.7931C0.282296 17.6365 0.0996094 17.3315 0.0996094 16.9996V1.69526C0.0996094 1.24929 0.291228 0.836619 0.60724 0.543507Z" fill="#212121"/>
</svg>
