<svg width="14" height="14" viewBox="0 0 14 14" fill="none" xmlns="http://www.w3.org/2000/svg">
<path d="M6.00039 5.90039C5.66902 5.90039 5.40039 6.16902 5.40039 6.50039C5.40039 6.83176 5.66902 7.10039 6.00039 7.10039H8.00039C8.33176 7.10039 8.60039 6.83176 8.60039 6.50039C8.60039 6.16902 8.33176 5.90039 8.00039 5.90039H6.00039Z" fill="#616161"/>
<path fill-rule="evenodd" clip-rule="evenodd" d="M5.50039 0.900391C5.07604 0.900391 4.66908 1.06896 4.36902 1.36902C4.06896 1.66908 3.90039 2.07604 3.90039 2.50039V2.90039H1.50039C0.892877 2.90039 0.400391 3.39288 0.400391 4.00039V12.0004C0.400391 12.6079 0.892877 13.1004 1.50039 13.1004H12.5004C13.1079 13.1004 13.6004 12.6079 13.6004 12.0004V6.90996C13.6007 6.89965 13.6007 6.88931 13.6004 6.87896V4.00039C13.6004 3.39288 13.1079 2.90039 12.5004 2.90039H10.1004V2.50039C10.1004 2.07604 9.93182 1.66908 9.63176 1.36902C9.3317 1.06896 8.92474 0.900391 8.50039 0.900391H5.50039ZM1.60039 11.9004V7.88811C3.28386 8.6874 5.12842 9.10349 7.0005 9.10065C8.87255 9.10345 10.7171 8.68724 12.4004 7.88776V11.9004H1.60039ZM7.00143 7.90065C8.88769 7.90362 10.7431 7.43618 12.4004 6.54305V4.10039H1.60039V6.54349C3.25787 7.43638 5.11327 7.90366 6.99953 7.90065H7.00143ZM8.90039 2.90039V2.50039C8.90039 2.3943 8.85825 2.29256 8.78323 2.21755C8.70822 2.14253 8.60648 2.10039 8.50039 2.10039H5.50039C5.3943 2.10039 5.29256 2.14253 5.21755 2.21755C5.14253 2.29256 5.10039 2.3943 5.10039 2.50039V2.90039H8.90039Z" fill="#616161"/>
</svg>
