<svg width="18" height="19" viewBox="0 0 18 19" fill="none" xmlns="http://www.w3.org/2000/svg">
<path fill-rule="evenodd" clip-rule="evenodd" d="M9.09111 4.51533C9.08887 4.51751 9.08664 4.5197 9.08442 4.52192C9.0822 4.52414 9.08001 4.52637 9.07783 4.52861L2.49869 11.1077C2.26705 11.3396 2.13687 11.6543 2.13672 11.982V15.1243C2.13672 15.4525 2.2671 15.7673 2.49917 15.9994C2.73125 16.2314 3.04601 16.3618 3.37422 16.3618H6.5168C6.84456 16.3617 7.15921 16.2312 7.3911 15.9995L13.9487 9.44029C13.9582 9.43184 13.9674 9.42309 13.9765 9.41402C13.9856 9.40491 13.9944 9.3956 14.0029 9.38612L16.0621 7.32637C16.294 7.09432 16.4243 6.77968 16.4243 6.45161C16.4243 6.12355 16.2937 5.80859 16.0618 5.57654L12.9196 2.43639C12.6875 2.20449 12.3729 2.07422 12.0448 2.07422C11.7167 2.07422 11.4021 2.20449 11.17 2.43639L9.09111 4.51533ZM10.5164 4.99926L12.0448 3.47079L15.0277 6.45165L13.4984 7.98131L10.5164 4.99926ZM12.5439 8.93602L6.46962 15.0118H3.48672V12.0289L9.56176 5.95386L12.5439 8.93602Z" fill="#212121"/>
</svg>
