<svg width="24" height="24" viewBox="0 0 24 24" fill="none" xmlns="http://www.w3.org/2000/svg">
<g clip-path="url(#clip0_3705_12412)">
<path fill-rule="evenodd" clip-rule="evenodd" d="M13.7411 3.24395C14.4726 2.51249 15.4647 2.10156 16.4991 2.10156C17.5335 2.10156 18.5256 2.51249 19.257 3.24395C19.9885 3.9754 20.3994 4.96747 20.3994 6.0019C20.3994 7.03525 19.9894 8.02632 19.2594 8.75756L9.95108 18.1942L9.93751 18.2077C9.48535 18.647 8.87848 18.8908 8.24805 18.8863C7.61762 18.8819 7.01426 18.6295 6.56837 18.1838C6.12248 17.7381 5.86987 17.1349 5.86512 16.5045C5.86038 15.874 6.10388 15.2671 6.54301 14.8147L6.54716 14.8104L14.3575 6.87076C14.7061 6.51641 15.2759 6.51173 15.6302 6.8603C15.9846 7.20888 15.9893 7.77871 15.6407 8.13305L7.83295 16.0701C7.72417 16.183 7.66389 16.3341 7.66507 16.4909C7.66626 16.6485 7.72941 16.7993 7.84088 16.9108C7.95236 17.0222 8.10319 17.0853 8.2608 17.0864C8.41594 17.0875 8.56538 17.0285 8.67783 16.9218L17.9842 7.48706C18.3781 7.09317 18.5994 6.55895 18.5994 6.0019C18.5994 5.44486 18.3781 4.91063 17.9843 4.51674C17.5904 4.12285 17.0561 3.90156 16.4991 3.90156C15.943 3.90156 15.4096 4.12211 15.0159 4.51477L5.70877 13.9512C5.70856 13.9514 5.70898 13.951 5.70877 13.9512C5.04311 14.6281 4.67116 15.5413 4.67503 16.4906C4.6789 17.4403 5.05788 18.35 5.72942 19.0216C6.40096 19.6931 7.31065 20.0721 8.26034 20.076C9.20898 20.0798 10.1208 19.7091 10.7975 19.0444C10.7983 19.0437 10.799 19.043 10.7998 19.0422L18.4882 11.365C18.8399 11.0138 19.4097 11.0142 19.761 11.366C20.1122 11.7177 20.1117 12.2876 19.76 12.6388L12.0622 20.3254C11.0467 21.3244 9.67755 21.8817 8.25301 21.8759C6.82847 21.8701 5.46393 21.3017 4.45662 20.2944C3.44931 19.2871 2.88085 17.9225 2.87504 16.498C2.86924 15.0734 3.42658 13.7043 4.42565 12.6888L13.7411 3.24395Z" fill="#9E9E9E"/>
</g>
<defs>
<clipPath id="clip0_3705_12412">
<rect width="24" height="24" fill="white"/>
</clipPath>
</defs>
</svg>
