<svg width="16" height="16" viewBox="0 0 16 16" fill="none" xmlns="http://www.w3.org/2000/svg">
<path fill-rule="evenodd" clip-rule="evenodd" d="M13.5638 1.90365C13.8664 1.9343 14.1029 2.18994 14.1029 2.50065V10.5007C14.1029 10.832 13.834 11.1009 13.5026 11.1009H11.1029V13.5007C11.1029 13.832 10.834 14.1009 10.5026 14.1009H2.5026C2.17123 14.1009 1.90234 13.832 1.90234 13.5007V5.50065L1.9056 5.43945C1.93625 5.13682 2.19189 4.90039 2.5026 4.90039H4.90234V2.50065L4.9056 2.43945C4.93625 2.13682 5.19189 1.90039 5.5026 1.90039H13.5026L13.5638 1.90365ZM3.10286 12.9004H9.90234V6.10091H3.10286V12.9004ZM6.10286 4.90039H10.5026L10.5638 4.90365C10.8664 4.9343 11.1029 5.18994 11.1029 5.50065V9.90039H12.9023V3.10091H6.10286V4.90039Z" fill="#9E9E9E"/>
</svg>
