<svg width="16" height="17" viewBox="0 0 16 17" fill="none" xmlns="http://www.w3.org/2000/svg">
<g clip-path="url(#clip0_5869_18142)">
<path fill-rule="evenodd" clip-rule="evenodd" d="M13.0007 2.43359C13.8843 2.43359 14.6009 3.1502 14.6009 4.03385V11.0339C14.6009 11.9175 13.8843 12.6341 13.0007 12.6341H8.60091V13.4336H10.0007L10.0618 13.4368C10.3645 13.4675 10.6009 13.7231 10.6009 14.0339C10.6009 14.3446 10.3645 14.6002 10.0618 14.6309L10.0007 14.6341H6.00065C5.66928 14.6341 5.40039 14.3652 5.40039 14.0339C5.40039 13.7025 5.66928 13.4336 6.00065 13.4336H7.40039V12.6341H3.00065C2.117 12.6341 1.40039 11.9175 1.40039 11.0339V4.03385C1.40039 3.1502 2.117 2.43359 3.00065 2.43359H13.0007ZM2.60091 11.0339C2.60091 11.2548 2.77974 11.4336 3.00065 11.4336H13.0007C13.2216 11.4336 13.4004 11.2548 13.4004 11.0339V10.1341H2.60091V11.0339ZM3.00065 3.63411C2.77974 3.63411 2.60091 3.81294 2.60091 4.03385V8.93359H13.4004V4.03385C13.4004 3.81294 13.2216 3.63411 13.0007 3.63411H3.00065Z" fill="#616161"/>
</g>
<defs>
<clipPath id="clip0_5869_18142">
<rect width="16" height="16" fill="white" transform="translate(0 0.5)"/>
</clipPath>
</defs>
</svg>
