<svg width="24" height="56" viewBox="0 0 24 56" fill="none" xmlns="http://www.w3.org/2000/svg">
<mask id="path-1-inside-1_2486_12785" fill="white">
<path d="M0 8C0 3.58172 3.58172 0 8 0H24V56H8C3.58172 56 0 52.4183 0 48V8Z"/>
</mask>
<path d="M0 8C0 3.58172 3.58172 0 8 0H24V56H8C3.58172 56 0 52.4183 0 48V8Z" fill="white"/>
<path d="M-1 8C-1 3.02944 3.02944 -1 8 -1H24V1H8C4.13401 1 1 4.13401 1 8H-1ZM24 57H8C3.02944 57 -1 52.9706 -1 48H1C1 51.866 4.13401 55 8 55H24V57ZM8 57C3.02944 57 -1 52.9706 -1 48V8C-1 3.02944 3.02944 -1 8 -1V1C4.13401 1 1 4.13401 1 8V48C1 51.866 4.13401 55 8 55V57ZM24 0V56V0Z" fill="#CECECE" mask="url(#path-1-inside-1_2486_12785)"/>
<g clip-path="url(#clip0_2486_12785)">
<path fill-rule="evenodd" clip-rule="evenodd" d="M15.1143 21.4775C15.4072 21.7704 15.4072 22.2452 15.1143 22.5381L9.65506 27.9974L15.1143 33.4566C15.4072 33.7495 15.4072 34.2244 15.1143 34.5173C14.8214 34.8102 14.3465 34.8102 14.0537 34.5173L8.06407 28.5277C7.77118 28.2348 7.77118 27.76 8.06407 27.4671L14.0537 21.4775C14.3465 21.1846 14.8214 21.1846 15.1143 21.4775Z" fill="#757575"/>
</g>
<defs>
<clipPath id="clip0_2486_12785">
<rect width="10" height="20" fill="white" transform="translate(7 18)"/>
</clipPath>
</defs>
</svg>
