<svg width="24" height="56" viewBox="0 0 24 56" fill="none" xmlns="http://www.w3.org/2000/svg">
<mask id="path-1-inside-1_2486_12037" fill="white">
<path d="M0 8C0 3.58172 3.58172 0 8 0H24V56H8C3.58172 56 0 52.4183 0 48V8Z"/>
</mask>
<path d="M0 8C0 3.58172 3.58172 0 8 0H24V56H8C3.58172 56 0 52.4183 0 48V8Z" fill="white"/>
<path d="M-1 8C-1 3.02944 3.02944 -1 8 -1H24V1H8C4.13401 1 1 4.13401 1 8H-1ZM24 57H8C3.02944 57 -1 52.9706 -1 48H1C1 51.866 4.13401 55 8 55H24V57ZM8 57C3.02944 57 -1 52.9706 -1 48V8C-1 3.02944 3.02944 -1 8 -1V1C4.13401 1 1 4.13401 1 8V48C1 51.866 4.13401 55 8 55V57ZM24 0V56V0Z" fill="#CECECE" mask="url(#path-1-inside-1_2486_12037)"/>
<g clip-path="url(#clip0_2486_12037)">
<path fill-rule="evenodd" clip-rule="evenodd" d="M8.89545 21.4775C8.60256 21.7704 8.60256 22.2452 8.89545 22.5381L14.3547 27.9974L8.89545 33.4566C8.60256 33.7495 8.60256 34.2244 8.89545 34.5173C9.18834 34.8102 9.66322 34.8102 9.95611 34.5173L15.9457 28.5277C16.2386 28.2348 16.2386 27.76 15.9457 27.4671L9.95611 21.4775C9.66322 21.1846 9.18834 21.1846 8.89545 21.4775Z" fill="#757575"/>
</g>
<defs>
<clipPath id="clip0_2486_12037">
<rect width="10" height="20" fill="white" transform="translate(7 18)"/>
</clipPath>
</defs>
</svg>
