<svg width="24" height="24" viewBox="0 0 24 24" fill="none" xmlns="http://www.w3.org/2000/svg">
<circle cx="12" cy="12" r="12" fill="#616161"/>
<path fill-rule="evenodd" clip-rule="evenodd" d="M12.0821 7.56831C12.0801 7.57025 12.0781 7.5722 12.0761 7.57417C12.0742 7.57614 12.0722 7.57813 12.0703 7.58012L6.22214 13.4282C6.01624 13.6344 5.90053 13.914 5.90039 14.2054V16.9985C5.90039 17.2903 6.01628 17.57 6.22257 17.7763C6.42886 17.9826 6.70865 18.0985 7.00039 18.0985H9.79379C10.0851 18.0984 10.3648 17.9824 10.571 17.7765L16.4 11.9461C16.4084 11.9385 16.4166 11.9308 16.4247 11.9227C16.4328 11.9146 16.4406 11.9063 16.4481 11.8979L18.2785 10.067C18.4847 9.86075 18.6005 9.58107 18.6005 9.28946C18.6005 8.99784 18.4844 8.71788 18.2783 8.51161L15.4851 5.72037C15.2789 5.51423 14.9992 5.39844 14.7076 5.39844C14.416 5.39844 14.1363 5.51423 13.93 5.72037L12.0821 7.56831ZM13.349 7.99848L14.7076 6.63984L17.359 9.28949L15.9997 10.6492L13.349 7.99848ZM15.1512 11.4978L9.75185 16.8985H7.10039V14.247L12.5004 8.84701L15.1512 11.4978Z" fill="white"/>
</svg>
