<svg width="24" height="18" viewBox="0 0 24 18" fill="none" xmlns="http://www.w3.org/2000/svg">
<path d="M5.27343 2.27989C5.64179 2.14372 6.04095 2.11357 6.42559 2.19286C6.81023 2.27216 7.16492 2.45773 7.44939 2.72849C7.73386 2.99925 7.9367 3.34435 8.03488 3.72461C8.15914 4.20588 8.65003 4.4953 9.1313 4.37103C9.61258 4.24677 9.90199 3.75588 9.77772 3.27461C9.59539 2.56842 9.21868 1.92751 8.69038 1.42467C8.16208 0.921832 7.50337 0.577208 6.78904 0.42994C6.07472 0.282672 5.33341 0.338662 4.64931 0.591551C3.9652 0.84444 3.36572 1.28409 2.91895 1.86058C2.47217 2.43707 2.196 3.12729 2.1218 3.85285C2.0476 4.57841 2.17835 5.31025 2.49919 5.96523C2.68244 6.33933 2.92351 6.6798 3.21186 6.97496C3.16874 6.99535 3.12582 7.01622 3.0831 7.03758C2.17676 7.49075 1.38859 8.14904 0.78121 8.96015C0.483276 9.35802 0.564288 9.92208 0.962157 10.22C1.36003 10.518 1.92409 10.4369 2.22202 10.0391C2.66163 9.452 3.23209 8.97555 3.88809 8.64755C4.54408 8.31955 5.26752 8.14906 6.00094 8.14961C6.498 8.14998 6.90124 7.74734 6.90162 7.25029C6.90199 6.75323 6.49935 6.34998 6.00229 6.34961C6.00213 6.34961 6.00246 6.34961 6.00229 6.34961C6.00186 6.34961 6.00093 6.34961 6.00051 6.34961C5.60778 6.34941 5.22298 6.23909 4.8898 6.03118C4.55663 5.82327 4.28843 5.52609 4.11567 5.17341C3.94291 4.82072 3.87251 4.42666 3.91246 4.03597C3.95241 3.64528 4.10112 3.27363 4.34169 2.96321C4.58227 2.65279 4.90506 2.41606 5.27343 2.27989Z" fill="#424242"/>
<path d="M18.7284 2.27989C18.36 2.14372 17.9609 2.11357 17.5762 2.19286C17.1916 2.27216 16.8369 2.45773 16.5524 2.72849C16.268 2.99925 16.0651 3.34436 15.967 3.72461C15.8427 4.20588 15.3518 4.4953 14.8705 4.37103C14.3893 4.24677 14.0998 3.75588 14.2241 3.27461C14.4064 2.56842 14.7832 1.92751 15.3115 1.42467C15.8398 0.921832 16.4985 0.577208 17.2128 0.42994C17.9271 0.282672 18.6684 0.338662 19.3525 0.591551C20.0366 0.84444 20.6361 1.28409 21.0829 1.86058C21.5297 2.43707 21.8058 3.12729 21.88 3.85285C21.9542 4.57841 21.8235 5.31025 21.5026 5.96523C21.3195 6.33915 21.0786 6.67947 20.7904 6.97453C20.8338 6.99505 20.8771 7.01607 20.9201 7.03758C21.8264 7.49075 22.6146 8.14904 23.222 8.96015C23.5199 9.35802 23.4389 9.92208 23.041 10.22C22.6432 10.518 22.0791 10.4369 21.7812 10.0391C21.3415 9.452 20.7711 8.97555 20.1151 8.64755C19.4591 8.31955 18.7357 8.14906 18.0022 8.14961C17.5052 8.14998 17.1019 7.74734 17.1016 7.25029C17.1012 6.77638 17.4672 6.38777 17.9321 6.35227C17.9511 6.35081 17.9703 6.34994 17.9897 6.34969L18.0009 6.34961C18.3936 6.34941 18.7789 6.23909 19.112 6.03118C19.4452 5.82327 19.7134 5.52609 19.8862 5.17341C20.0589 4.82072 20.1293 4.42666 20.0894 4.03597C20.0494 3.64528 19.9007 3.27363 19.6601 2.96321C19.4196 2.65279 19.0968 2.41606 18.7284 2.27989Z" fill="#424242"/>
<path fill-rule="evenodd" clip-rule="evenodd" d="M7.35156 9.49961C7.35156 6.93149 9.43344 4.84961 12.0016 4.84961C14.5697 4.84961 16.6516 6.93149 16.6516 9.49961C16.6516 10.9149 16.0193 12.1825 15.0218 13.0353C15.1742 13.1083 15.3243 13.1869 15.4716 13.2711C16.5283 13.8749 17.4092 14.7441 18.0271 15.7927C18.2794 16.2209 18.1369 16.7726 17.7086 17.025C17.2804 17.2773 16.7287 17.1348 16.4763 16.7065C16.0174 15.9278 15.3633 15.2824 14.5785 14.8339C13.7938 14.3855 12.9056 14.1496 12.0017 14.1496C11.0979 14.1496 10.2096 14.3855 9.42488 14.8339C8.64012 15.2824 7.98597 15.9278 7.52709 16.7065C7.27474 17.1348 6.72302 17.2773 6.29478 17.025C5.86655 16.7726 5.72397 16.2209 5.97632 15.7927C6.59423 14.7441 7.47509 13.8749 8.53183 13.2711C8.67909 13.1869 8.82905 13.1084 8.98139 13.0354C7.98386 12.1825 7.35156 10.9149 7.35156 9.49961ZM12.0016 6.64961C10.4276 6.64961 9.15156 7.9256 9.15156 9.49961C9.15156 11.0736 10.4276 12.3496 12.0016 12.3496C13.5756 12.3496 14.8516 11.0736 14.8516 9.49961C14.8516 7.9256 13.5756 6.64961 12.0016 6.64961Z" fill="#424242"/>
</svg>
