<svg width="24" height="24" viewBox="0 0 24 24" fill="none" xmlns="http://www.w3.org/2000/svg">
<path d="M14.25 5.25V16.5C14.25 16.6989 14.171 16.8897 14.0303 17.0303C13.8897 17.171 13.6989 17.25 13.5 17.25C13.3011 17.25 13.1103 17.171 12.9697 17.0303C12.829 16.8897 12.75 16.6989 12.75 16.5V11.625H4.5V16.5C4.5 16.6989 4.42098 16.8897 4.28033 17.0303C4.13968 17.171 3.94891 17.25 3.75 17.25C3.55109 17.25 3.36032 17.171 3.21967 17.0303C3.07902 16.8897 3 16.6989 3 16.5V5.25C3 5.05109 3.07902 4.86032 3.21967 4.71967C3.36032 4.57902 3.55109 4.5 3.75 4.5C3.94891 4.5 4.13968 4.57902 4.28033 4.71967C4.42098 4.86032 4.5 5.05109 4.5 5.25V10.125H12.75V5.25C12.75 5.05109 12.829 4.86032 12.9697 4.71967C13.1103 4.57902 13.3011 4.5 13.5 4.5C13.6989 4.5 13.8897 4.57902 14.0303 4.71967C14.171 4.86032 14.25 5.05109 14.25 5.25ZM21.3534 9.84375C21.2338 9.77964 21.0991 9.74919 20.9635 9.75563C20.828 9.76207 20.6967 9.80516 20.5837 9.88031L18.3337 11.3803C18.2518 11.435 18.1813 11.5053 18.1265 11.5871C18.0717 11.669 18.0335 11.7609 18.0142 11.8575C17.9948 11.9542 17.9947 12.0536 18.0139 12.1503C18.033 12.247 18.071 12.3389 18.1256 12.4209C18.1803 12.5029 18.2506 12.5734 18.3324 12.6282C18.4143 12.683 18.5062 12.7212 18.6028 12.7405C18.6995 12.7598 18.799 12.7599 18.8956 12.7408C18.9923 12.7217 19.0843 12.6837 19.1663 12.6291L20.25 11.9062V19.5C20.25 19.6989 20.329 19.8897 20.4697 20.0303C20.6103 20.171 20.8011 20.25 21 20.25C21.1989 20.25 21.3897 20.171 21.5303 20.0303C21.671 19.8897 21.75 19.6989 21.75 19.5V10.5C21.7491 10.3651 21.7117 10.2329 21.6419 10.1174C21.5721 10.0019 21.4725 9.90734 21.3534 9.84375Z" fill="#212121"/>
</svg>
