<svg width="24" height="24" viewBox="0 0 24 24" fill="none" xmlns="http://www.w3.org/2000/svg">
<path d="M14.25 5.25V16.5C14.25 16.6989 14.171 16.8897 14.0303 17.0303C13.8897 17.171 13.6989 17.25 13.5 17.25C13.3011 17.25 13.1103 17.171 12.9697 17.0303C12.829 16.8897 12.75 16.6989 12.75 16.5V11.625H4.5V16.5C4.5 16.6989 4.42098 16.8897 4.28033 17.0303C4.13968 17.171 3.94891 17.25 3.75 17.25C3.55109 17.25 3.36032 17.171 3.21967 17.0303C3.07902 16.8897 3 16.6989 3 16.5V5.25C3 5.05109 3.07902 4.86032 3.21967 4.71967C3.36032 4.57902 3.55109 4.5 3.75 4.5C3.94891 4.5 4.13968 4.57902 4.28033 4.71967C4.42098 4.86032 4.5 5.05109 4.5 5.25V10.125H12.75V5.25C12.75 5.05109 12.829 4.86032 12.9697 4.71967C13.1103 4.57902 13.3011 4.5 13.5 4.5C13.6989 4.5 13.8897 4.57902 14.0303 4.71967C14.171 4.86032 14.25 5.05109 14.25 5.25ZM22.5 18.75H19.5L22.6453 14.5556C22.9054 14.2101 23.0877 13.8124 23.1797 13.3899C23.2717 12.9673 23.2713 12.5298 23.1785 12.1075C23.0856 11.6851 22.9026 11.2878 22.6418 10.9427C22.3811 10.5977 22.0488 10.3132 21.6678 10.1085C21.2868 9.90392 20.8661 9.7841 20.4345 9.75728C20.0028 9.73046 19.5705 9.79727 19.1671 9.95315C18.7637 10.109 18.3988 10.3503 18.0973 10.6604C17.7959 10.9705 17.565 11.342 17.4206 11.7497C17.3857 11.843 17.3698 11.9423 17.3737 12.0418C17.3776 12.1413 17.4013 12.239 17.4434 12.3293C17.4855 12.4196 17.5451 12.5005 17.6189 12.5675C17.6926 12.6345 17.7789 12.6861 17.8728 12.7193C17.9667 12.7526 18.0662 12.7668 18.1657 12.7611C18.2651 12.7555 18.3624 12.7301 18.4519 12.6864C18.5414 12.6428 18.6213 12.5817 18.687 12.5068C18.7527 12.432 18.8028 12.3448 18.8344 12.2503C18.8862 12.1058 18.9595 11.9699 19.0519 11.8472C19.1689 11.6857 19.3169 11.5492 19.4873 11.4457C19.6577 11.3421 19.8471 11.2736 20.0443 11.2441C20.2415 11.2145 20.4426 11.2246 20.6359 11.2738C20.8291 11.3229 21.0106 11.41 21.1698 11.5301C21.329 11.6502 21.4626 11.8009 21.5629 11.9732C21.6632 12.1456 21.7281 12.3362 21.7538 12.5339C21.7796 12.7316 21.7656 12.9325 21.7128 13.1248C21.66 13.3171 21.5694 13.4969 21.4462 13.6537L17.4 19.05C17.3164 19.1614 17.2655 19.2939 17.253 19.4326C17.2405 19.5714 17.2669 19.7108 17.3292 19.8354C17.3915 19.96 17.4872 20.0648 17.6057 20.138C17.7242 20.2112 17.8607 20.25 18 20.25H22.5C22.6989 20.25 22.8897 20.171 23.0303 20.0303C23.171 19.8897 23.25 19.6989 23.25 19.5C23.25 19.3011 23.171 19.1103 23.0303 18.9697C22.8897 18.829 22.6989 18.75 22.5 18.75Z" fill="#212121"/>
</svg>
