<svg width="24" height="24" viewBox="0 0 24 24" fill="none" xmlns="http://www.w3.org/2000/svg">
<path d="M14.25 5.25V16.5C14.25 16.6989 14.171 16.8897 14.0303 17.0303C13.8897 17.171 13.6989 17.25 13.5 17.25C13.3011 17.25 13.1103 17.171 12.9697 17.0303C12.829 16.8897 12.75 16.6989 12.75 16.5V11.625H4.5V16.5C4.5 16.6989 4.42098 16.8897 4.28033 17.0303C4.13968 17.171 3.94891 17.25 3.75 17.25C3.55109 17.25 3.36032 17.171 3.21967 17.0303C3.07902 16.8897 3 16.6989 3 16.5V5.25C3 5.05109 3.07902 4.86032 3.21967 4.71967C3.36032 4.57902 3.55109 4.5 3.75 4.5C3.94891 4.5 4.13968 4.57902 4.28033 4.71967C4.42098 4.86032 4.5 5.05109 4.5 5.25V10.125H12.75V5.25C12.75 5.05109 12.829 4.86032 12.9697 4.71967C13.1103 4.57902 13.3011 4.5 13.5 4.5C13.6989 4.5 13.8897 4.57902 14.0303 4.71967C14.171 4.86032 14.25 5.05109 14.25 5.25ZM21.1425 13.7466L23.1112 10.9341C23.1909 10.8219 23.2381 10.6899 23.2478 10.5527C23.2574 10.4155 23.2292 10.2782 23.1661 10.156C23.103 10.0337 23.0074 9.93118 22.89 9.85958C22.7725 9.78798 22.6376 9.75007 22.5 9.75H18C17.8011 9.75 17.6103 9.82902 17.4697 9.96967C17.329 10.1103 17.25 10.3011 17.25 10.5C17.25 10.6989 17.329 10.8897 17.4697 11.0303C17.6103 11.171 17.8011 11.25 18 11.25H21.0591L19.2609 13.8197C19.1822 13.9321 19.1358 14.0639 19.1268 14.2008C19.1178 14.3377 19.1465 14.4744 19.2099 14.5961C19.2732 14.7179 19.3687 14.8199 19.486 14.8911C19.6032 14.9623 19.7378 15 19.875 15C20.1841 15.0001 20.4884 15.0766 20.7608 15.2228C21.0332 15.3689 21.2652 15.5801 21.4362 15.8376C21.6072 16.0951 21.7119 16.3909 21.741 16.6986C21.7701 17.0064 21.7226 17.3165 21.6029 17.6015C21.4831 17.8865 21.2947 18.1374 21.0545 18.332C20.8143 18.5265 20.5298 18.6587 20.2262 18.7167C19.9225 18.7747 19.6093 18.7567 19.3143 18.6644C19.0193 18.5721 18.7517 18.4082 18.5353 18.1875C18.4675 18.1128 18.3853 18.0526 18.2936 18.0104C18.202 17.9682 18.1028 17.945 18.0019 17.9421C17.9011 17.9391 17.8007 17.9566 17.7068 17.9933C17.6128 18.0301 17.5273 18.0854 17.4552 18.156C17.3831 18.2266 17.3261 18.3111 17.2874 18.4042C17.2487 18.4974 17.2293 18.5974 17.2301 18.6983C17.231 18.7992 17.2523 18.8989 17.2926 18.9913C17.3329 19.0838 17.3914 19.1672 17.4647 19.2366C17.9339 19.7153 18.535 20.0434 19.1915 20.1792C19.8479 20.315 20.5299 20.2522 21.1505 19.9988C21.7711 19.7455 22.3022 19.3131 22.6761 18.7568C23.0501 18.2004 23.2498 17.5453 23.25 16.875C23.2492 16.2032 23.0483 15.5468 22.673 14.9896C22.2976 14.4324 21.7648 13.9997 21.1425 13.7466Z" fill="#212121"/>
</svg>
