<svg width="12" height="15" viewBox="0 0 12 15" fill="none" xmlns="http://www.w3.org/2000/svg">
<path fill-rule="evenodd" clip-rule="evenodd" d="M5.99844 3.40039C4.5625 3.40039 3.39844 4.56445 3.39844 6.00039C3.39844 7.43633 4.5625 8.60039 5.99844 8.60039C7.43438 8.60039 8.59844 7.43633 8.59844 6.00039C8.59844 4.56445 7.43438 3.40039 5.99844 3.40039ZM4.59844 6.00039C4.59844 5.22719 5.22524 4.60039 5.99844 4.60039C6.77164 4.60039 7.39844 5.22719 7.39844 6.00039C7.39844 6.77359 6.77164 7.40039 5.99844 7.40039C5.22524 7.40039 4.59844 6.77359 4.59844 6.00039Z" fill="#616161"/>
<path fill-rule="evenodd" clip-rule="evenodd" d="M5.65401 14.4917C5.65401 14.4917 5.65436 14.4919 5.99844 14.0004L5.65401 14.4917C5.8606 14.6363 6.13592 14.6365 6.34252 14.4919L5.99844 14.0004C6.34252 14.4919 6.34252 14.4919 6.34252 14.4919L6.34459 14.4905L6.34848 14.4877L6.3616 14.4784C6.37267 14.4705 6.38836 14.4592 6.40836 14.4446C6.44834 14.4154 6.50559 14.373 6.57763 14.3179C6.72164 14.2079 6.92513 14.047 7.16828 13.8404C7.65374 13.4277 8.3017 12.8285 8.9512 12.0816C10.2355 10.6046 11.5984 8.46642 11.5984 6.00039C11.5984 4.51518 11.0084 3.0908 9.95824 2.04059C8.90803 0.990389 7.48365 0.400391 5.99844 0.400391C4.51323 0.400391 3.08884 0.990389 2.03864 2.04059C0.988436 3.0908 0.398438 4.51518 0.398438 6.00039C0.398438 8.46642 1.76133 10.6046 3.04567 12.0816C3.69518 12.8285 4.34314 13.4277 4.8286 13.8404C5.07175 14.047 5.27523 14.2079 5.41925 14.3179C5.49129 14.373 5.54853 14.4154 5.58852 14.4446C5.60851 14.4592 5.6242 14.4705 5.63528 14.4784L5.64839 14.4877L5.65228 14.4905L5.65401 14.4917ZM2.88717 2.88912C3.71233 2.06396 4.83149 1.60039 5.99844 1.60039C7.16539 1.60039 8.28455 2.06396 9.10971 2.88912C9.93487 3.71428 10.3984 4.83344 10.3984 6.00039C10.3984 8.03436 9.26133 9.89618 8.04567 11.2942C7.44518 11.9848 6.84314 12.5418 6.3911 12.926C6.2414 13.0533 6.10864 13.1612 5.99844 13.2482C5.88824 13.1612 5.75547 13.0533 5.60578 12.926C5.15374 12.5418 4.5517 11.9848 3.9512 11.2942C2.73555 9.89618 1.59844 8.03436 1.59844 6.00039C1.59844 4.83344 2.06201 3.71428 2.88717 2.88912Z" fill="#616161"/>
</svg>
