<svg width="196" height="57" viewBox="0 0 196 57" fill="none" xmlns="http://www.w3.org/2000/svg">
<path d="M176.702 42.5407C174.504 42.5407 172.634 41.7564 171.093 40.1877C169.552 38.619 168.781 36.7161 168.781 34.4788V28.4998V22.5209C168.781 20.3093 169.552 18.4192 171.093 16.8506C172.634 15.2562 174.504 14.459 176.702 14.459H191.595C192.328 14.459 192.947 14.729 193.452 15.269C193.983 15.7834 194.248 16.4134 194.248 17.1591C194.248 17.9049 193.983 18.5349 193.452 19.0493C192.947 19.5636 192.328 19.8207 191.595 19.8207H176.702C175.969 19.8207 175.337 20.0908 174.807 20.6308C174.302 21.1451 174.049 21.7751 174.049 22.5209V25.8383H190.383C191.09 25.8383 191.696 26.0954 192.202 26.6097C192.732 27.124 192.997 27.7541 192.997 28.4998C192.997 29.2456 192.732 29.8885 192.202 30.4285C191.696 30.9428 191.09 31.2 190.383 31.2H174.049V34.4788C174.049 35.2245 174.302 35.8674 174.807 36.4075C175.337 36.9218 175.969 37.1789 176.702 37.1789H191.595C192.328 37.1789 192.947 37.449 193.452 37.989C193.983 38.5033 194.248 39.1205 194.248 39.8405C194.248 40.5863 193.983 41.2163 193.452 41.7307C192.947 42.2707 192.328 42.5407 191.595 42.5407H176.702Z" fill="#121212"/>
<path d="M157.434 25.8383C159.707 25.8383 161.64 26.6612 163.232 28.307C164.849 29.9271 165.657 31.8815 165.657 34.1702C165.657 36.4846 164.849 38.4519 163.232 40.072C161.64 41.7178 159.707 42.5407 157.434 42.5407H142.881C142.148 42.5407 141.517 42.2707 140.986 41.7307C140.481 41.2163 140.228 40.5863 140.228 39.8405C140.228 39.1205 140.481 38.5033 140.986 37.989C141.517 37.449 142.148 37.1789 142.881 37.1789H157.434C158.242 37.1789 158.937 36.8832 159.518 36.2917C160.099 35.7003 160.389 34.9931 160.389 34.1702C160.389 33.3473 160.099 32.653 159.518 32.0872C158.937 31.4957 158.242 31.2 157.434 31.2H156.41H152.166H147.618C145.344 31.2 143.399 30.39 141.782 28.7699C140.19 27.124 139.395 25.1439 139.395 22.8295C139.395 20.5151 140.19 18.5478 141.782 16.9277C143.399 15.2819 145.344 14.459 147.618 14.459H162.019C162.752 14.459 163.371 14.729 163.876 15.269C164.381 15.7834 164.634 16.4134 164.634 17.1591C164.634 17.9049 164.381 18.5349 163.876 19.0493C163.371 19.5636 162.752 19.8207 162.019 19.8207H147.618C146.81 19.8207 146.115 20.1165 145.534 20.7079C144.953 21.2994 144.662 22.0066 144.662 22.8295C144.662 23.6524 144.953 24.3596 145.534 24.9511C146.115 25.5425 146.81 25.8383 147.618 25.8383H152.166H156.41H157.434Z" fill="#121212"/>
<path d="M115.141 42.5407C114.408 42.5407 113.777 42.2707 113.246 41.7307C112.741 41.2163 112.488 40.5863 112.488 39.8405V17.1591C112.488 16.4134 112.741 15.7834 113.246 15.269C113.777 14.729 114.408 14.459 115.141 14.459C115.848 14.459 116.455 14.729 116.96 15.269C117.491 15.7834 117.756 16.4134 117.756 17.1591V37.1789H133.976C134.709 37.1789 135.328 37.449 135.833 37.989C136.363 38.5033 136.629 39.1205 136.629 39.8405C136.629 40.5863 136.363 41.2163 135.833 41.7307C135.328 42.2707 134.709 42.5407 133.976 42.5407H115.141Z" fill="#121212"/>
<path d="M106.621 14.459C107.354 14.459 107.973 14.729 108.478 15.269C109.009 15.7834 109.274 16.4134 109.274 17.1591V29.1556C109.274 31.5986 108.68 33.8359 107.493 35.8674C106.305 37.899 104.714 39.5191 102.718 40.7277C100.722 41.9364 98.5112 42.5407 96.0858 42.5407C93.6857 42.5407 91.4876 41.9364 89.4917 40.7277C87.4958 39.5191 85.9042 37.899 84.7167 35.8674C83.5293 33.8359 82.9355 31.5986 82.9355 29.1556V17.1591C82.9355 16.4134 83.1882 15.7834 83.6935 15.269C84.224 14.729 84.8557 14.459 85.5883 14.459C86.2958 14.459 86.9021 14.729 87.4074 15.269C87.938 15.7834 88.2032 16.4134 88.2032 17.1591V29.1556C88.2032 31.3672 88.9738 33.2573 90.515 34.8259C92.0561 36.3946 93.9131 37.1789 96.0858 37.1789C98.2839 37.1789 100.153 36.3946 101.695 34.8259C103.236 33.2573 104.006 31.3672 104.006 29.1556V17.1591C104.006 16.4134 104.259 15.7834 104.764 15.269C105.27 14.729 105.889 14.459 106.621 14.459Z" fill="#121212"/>
<path d="M71.7567 14.459C74.2326 14.459 76.3549 15.359 78.1234 17.1591C79.8919 18.9335 80.7762 21.0937 80.7762 23.6395C80.7762 26.1597 79.8919 28.3198 78.1234 30.1199C76.3549 31.8943 74.2326 32.7815 71.7567 32.7815H60.5392V39.8405C60.5392 40.5863 60.2739 41.2163 59.7433 41.7307C59.238 42.2707 58.6317 42.5407 57.9243 42.5407C57.1916 42.5407 56.56 42.2707 56.0294 41.7307C55.5241 41.2163 55.2715 40.5863 55.2715 39.8405V17.1591C55.2715 16.4134 55.5241 15.7834 56.0294 15.269C56.56 14.729 57.1916 14.459 57.9243 14.459H71.7567ZM71.7567 27.4198C72.7926 27.4198 73.6642 27.0469 74.3716 26.3011C75.1043 25.5554 75.4706 24.6682 75.4706 23.6395C75.4706 22.5852 75.1043 21.6851 74.3716 20.9394C73.6642 20.1936 72.7926 19.8207 71.7567 19.8207H60.5392V27.4198H71.7567Z" fill="#121212"/>
<path fill-rule="evenodd" clip-rule="evenodd" d="M25.2461 51.3231C25.2461 52.7762 26.672 53.696 27.791 52.8833C34.9277 47.7002 39.647 38.7155 39.647 28.4997C39.647 18.284 34.9277 9.29922 27.791 4.11617C26.672 3.30345 25.2461 4.22326 25.2461 5.67637C25.2461 7.12947 28.3038 13.8006 28.3038 28.4997C28.3038 43.1989 25.2461 49.87 25.2461 51.3231Z" fill="url(#paint0_linear_1690_3978)"/>
<path fill-rule="evenodd" clip-rule="evenodd" d="M11.6035 45.4375C11.6035 46.516 12.6542 47.1987 13.4787 46.5955C18.7373 42.7487 22.2147 36.0803 22.2147 28.4983C22.2147 20.9163 18.7373 14.248 13.4787 10.4012C12.6542 9.79797 11.6035 10.4806 11.6035 11.5591C11.6035 12.6376 13.4194 17.5888 13.4194 28.4983C13.4194 39.4078 11.6035 44.3591 11.6035 45.4375Z" fill="url(#paint1_linear_1690_3978)"/>
<path fill-rule="evenodd" clip-rule="evenodd" d="M1.75 38.4851C1.75 39.1208 2.38789 39.5232 2.88852 39.1677C6.08124 36.9001 8.1925 32.9693 8.1925 28.4999C8.1925 24.0305 6.08124 20.0997 2.88852 17.8321C2.38789 17.4765 1.75 17.8789 1.75 18.5147C1.75 19.1504 2.49715 22.069 2.49715 28.4999C2.49715 34.9308 1.75 37.8494 1.75 38.4851Z" fill="url(#paint2_linear_1690_3978)"/>
<defs>
<linearGradient id="paint0_linear_1690_3978" x1="39.647" y1="28.4997" x2="25.2461" y2="28.4997" gradientUnits="userSpaceOnUse">
<stop stop-color="#00D7BE"/>
<stop offset="1" stop-color="#0BC4AE"/>
</linearGradient>
<linearGradient id="paint1_linear_1690_3978" x1="22.2147" y1="28.4983" x2="11.6035" y2="28.4983" gradientUnits="userSpaceOnUse">
<stop stop-color="#00D7BE"/>
<stop offset="1" stop-color="#0BC4AE"/>
</linearGradient>
<linearGradient id="paint2_linear_1690_3978" x1="8.1925" y1="28.4999" x2="1.75" y2="28.4999" gradientUnits="userSpaceOnUse">
<stop stop-color="#00D7BE"/>
<stop offset="1" stop-color="#0BC4AE"/>
</linearGradient>
</defs>
</svg>
