
<svg width="112" height="32" viewBox="0 0 112 32" fill="none" xmlns="http://www.w3.org/2000/svg">
<path d="M100.973 23.8824C99.7172 23.8824 98.6489 23.442 97.7682 22.5614C96.8876 21.6807 96.4473 20.6124 96.4473 19.3564V15.9998V12.6432C96.4473 11.4016 96.8876 10.3405 97.7682 9.45983C98.6489 8.56473 99.7172 8.11719 100.973 8.11719H109.484C109.903 8.11719 110.256 8.26878 110.545 8.57195C110.848 8.86069 111 9.2144 111 9.63307C111 10.0517 110.848 10.4054 110.545 10.6942C110.256 10.9829 109.903 11.1273 109.484 11.1273H100.973C100.555 11.1273 100.194 11.2789 99.8905 11.5821C99.6017 11.8708 99.4574 12.2245 99.4574 12.6432V14.5055H108.791C109.195 14.5055 109.542 14.6499 109.83 14.9387C110.134 15.2274 110.285 15.5811 110.285 15.9998C110.285 16.4184 110.134 16.7794 109.83 17.0825C109.542 17.3713 109.195 17.5157 108.791 17.5157H99.4574V19.3564C99.4574 19.775 99.6017 20.136 99.8905 20.4391C100.194 20.7279 100.555 20.8723 100.973 20.8723H109.484C109.903 20.8723 110.256 21.0238 110.545 21.327C110.848 21.6158 111 21.9622 111 22.3665C111 22.7852 110.848 23.1389 110.545 23.4276C110.256 23.7308 109.903 23.8824 109.484 23.8824H100.973Z" fill="#101010"/>
<path d="M89.9623 14.5055C91.2616 14.5055 92.366 14.9675 93.2756 15.8915C94.1995 16.801 94.6615 17.8982 94.6615 19.1831C94.6615 20.4825 94.1995 21.5869 93.2756 22.4964C92.366 23.4204 91.2616 23.8824 89.9623 23.8824H81.6466C81.2279 23.8824 80.867 23.7308 80.5638 23.4276C80.2751 23.1389 80.1307 22.7852 80.1307 22.3665C80.1307 21.9622 80.2751 21.6158 80.5638 21.327C80.867 21.0238 81.2279 20.8723 81.6466 20.8723H89.9623C90.4243 20.8723 90.8213 20.7062 91.1533 20.3742C91.4854 20.0421 91.6514 19.6451 91.6514 19.1831C91.6514 18.7211 91.4854 18.3313 91.1533 18.0137C90.8213 17.6817 90.4243 17.5157 89.9623 17.5157H89.3776H86.9522H84.3535C83.0542 17.5157 81.9426 17.0609 81.0186 16.1514C80.1091 15.2274 79.6543 14.1157 79.6543 12.8164C79.6543 11.5171 80.1091 10.4127 81.0186 9.50314C81.9426 8.57917 83.0542 8.11719 84.3535 8.11719H92.5826C93.0013 8.11719 93.355 8.26878 93.6437 8.57195C93.9325 8.86069 94.0768 9.2144 94.0768 9.63307C94.0768 10.0517 93.9325 10.4054 93.6437 10.6942C93.355 10.9829 93.0013 11.1273 92.5826 11.1273H84.3535C83.8915 11.1273 83.4945 11.2933 83.1625 11.6254C82.8304 11.9574 82.6644 12.3544 82.6644 12.8164C82.6644 13.2784 82.8304 13.6754 83.1625 14.0075C83.4945 14.3395 83.8915 14.5055 84.3535 14.5055H86.9522H89.3776H89.9623Z" fill="#101010"/>
<path d="M65.7952 23.8824C65.3765 23.8824 65.0156 23.7308 64.7124 23.4276C64.4237 23.1389 64.2793 22.7852 64.2793 22.3665V9.63307C64.2793 9.2144 64.4237 8.86069 64.7124 8.57195C65.0156 8.26878 65.3765 8.11719 65.7952 8.11719C66.1994 8.11719 66.5459 8.26878 66.8346 8.57195C67.1378 8.86069 67.2894 9.2144 67.2894 9.63307V20.8723H76.5579C76.9766 20.8723 77.3303 21.0238 77.6191 21.327C77.9222 21.6158 78.0738 21.9622 78.0738 22.3665C78.0738 22.7852 77.9222 23.1389 77.6191 23.4276C77.3303 23.7308 76.9766 23.8824 76.5579 23.8824H65.7952Z" fill="#101010"/>
<path d="M60.9272 8.11719C61.3459 8.11719 61.6996 8.26878 61.9884 8.57195C62.2915 8.86069 62.4431 9.2144 62.4431 9.63307V16.3679C62.4431 17.7394 62.1039 18.9954 61.4253 20.136C60.7468 21.2765 59.8372 22.186 58.6967 22.8646C57.5562 23.5431 56.293 23.8824 54.907 23.8824C53.5355 23.8824 52.2795 23.5431 51.139 22.8646C49.9985 22.186 49.0889 21.2765 48.4104 20.136C47.7318 18.9954 47.3926 17.7394 47.3926 16.3679V9.63307C47.3926 9.2144 47.5369 8.86069 47.8257 8.57195C48.1289 8.26878 48.4898 8.11719 48.9085 8.11719C49.3127 8.11719 49.6592 8.26878 49.9479 8.57195C50.2511 8.86069 50.4027 9.2144 50.4027 9.63307V16.3679C50.4027 17.6095 50.843 18.6706 51.7237 19.5513C52.6043 20.4319 53.6654 20.8723 54.907 20.8723C56.163 20.8723 57.2314 20.4319 58.112 19.5513C58.9927 18.6706 59.433 17.6095 59.433 16.3679V9.63307C59.433 9.2144 59.5774 8.86069 59.8661 8.57195C60.1549 8.26878 60.5086 8.11719 60.9272 8.11719Z" fill="#101010"/>
<path d="M41.0041 8.11719C42.4189 8.11719 43.6316 8.62248 44.6422 9.63307C45.6528 10.6292 46.1581 11.8419 46.1581 13.2712C46.1581 14.686 45.6528 15.8987 44.6422 16.9093C43.6316 17.9055 42.4189 18.4035 41.0041 18.4035H34.5941V22.3665C34.5941 22.7852 34.4425 23.1389 34.1393 23.4276C33.8506 23.7308 33.5041 23.8824 33.0999 23.8824C32.6812 23.8824 32.3203 23.7308 32.0171 23.4276C31.7284 23.1389 31.584 22.7852 31.584 22.3665V9.63307C31.584 9.2144 31.7284 8.86069 32.0171 8.57195C32.3203 8.26878 32.6812 8.11719 33.0999 8.11719H41.0041ZM41.0041 15.3934C41.596 15.3934 42.0941 15.1841 42.4983 14.7654C42.917 14.3467 43.1263 13.8487 43.1263 13.2712C43.1263 12.6793 42.917 12.174 42.4983 11.7553C42.0941 11.3366 41.596 11.1273 41.0041 11.1273H34.5941V15.3934H41.0041Z" fill="#101010"/>
<path fill-rule="evenodd" clip-rule="evenodd" d="M14.4258 28.8132C14.4258 29.629 15.2406 30.1454 15.88 29.6891C19.9581 26.7793 22.6549 21.7353 22.6549 16.0001C22.6549 10.265 19.9581 5.22089 15.88 2.31111C15.2406 1.85484 14.4258 2.37123 14.4258 3.18701C14.4258 4.00279 16.1731 7.74797 16.1731 16.0001C16.1731 24.2523 14.4258 27.9974 14.4258 28.8132Z" fill="url(#paint0_linear_1690_4018)"/>
<path fill-rule="evenodd" clip-rule="evenodd" d="M6.63086 25.509C6.63086 26.1144 7.23123 26.4977 7.70241 26.159C10.7073 23.9994 12.6944 20.2558 12.6944 15.9992C12.6944 11.7427 10.7073 7.99903 7.70241 5.83942C7.23122 5.50078 6.63086 5.88404 6.63086 6.4895C6.63086 7.09496 7.66852 9.87459 7.66852 15.9992C7.66852 22.1239 6.63086 24.9035 6.63086 25.509Z" fill="url(#paint1_linear_1690_4018)"/>
<path fill-rule="evenodd" clip-rule="evenodd" d="M1 21.6048C1 21.9617 1.36451 22.1876 1.65058 21.988C3.47499 20.715 4.68143 18.5082 4.68143 15.9991C4.68143 13.4899 3.47499 11.2832 1.65058 10.0101C1.36451 9.81052 1 10.0364 1 10.3933C1 10.7502 1.42694 12.3888 1.42694 15.9991C1.42694 19.6094 1 21.2479 1 21.6048Z" fill="url(#paint2_linear_1690_4018)"/>
<defs>
<linearGradient id="paint0_linear_1690_4018" x1="22.6549" y1="16.0001" x2="14.4258" y2="16.0001" gradientUnits="userSpaceOnUse">
<stop stop-color="#00D7BE"/>
<stop offset="1" stop-color="#0BC4AE"/>
</linearGradient>
<linearGradient id="paint1_linear_1690_4018" x1="12.6944" y1="15.9992" x2="6.63086" y2="15.9992" gradientUnits="userSpaceOnUse">
<stop stop-color="#00D7BE"/>
<stop offset="1" stop-color="#0BC4AE"/>
</linearGradient>
<linearGradient id="paint2_linear_1690_4018" x1="4.68143" y1="15.9991" x2="1" y2="15.9991" gradientUnits="userSpaceOnUse">
<stop stop-color="#00D7BE"/>
<stop offset="1" stop-color="#0BC4AE"/>
</linearGradient>
</defs>
</svg>
