<svg width="16" height="17" viewBox="0 0 16 17" fill="none" xmlns="http://www.w3.org/2000/svg">
<g clip-path="url(#clip0_5869_11146)">
<path fill-rule="evenodd" clip-rule="evenodd" d="M8.00039 4.40039C6.56445 4.40039 5.40039 5.56445 5.40039 7.00039C5.40039 8.43633 6.56445 9.60039 8.00039 9.60039C9.43633 9.60039 10.6004 8.43633 10.6004 7.00039C10.6004 5.56445 9.43633 4.40039 8.00039 4.40039ZM6.60039 7.00039C6.60039 6.22719 7.22719 5.60039 8.00039 5.60039C8.77359 5.60039 9.40039 6.22719 9.40039 7.00039C9.40039 7.77359 8.77359 8.40039 8.00039 8.40039C7.22719 8.40039 6.60039 7.77359 6.60039 7.00039Z" fill="#616161"/>
<path fill-rule="evenodd" clip-rule="evenodd" d="M7.65597 15.4917C7.65615 15.4918 7.65631 15.4919 8.00039 15.0004L7.65597 15.4917C7.86256 15.6363 8.13788 15.6365 8.34447 15.4919L8.00039 15.0004C8.34447 15.4919 8.34429 15.4921 8.34447 15.4919L8.34528 15.4914L8.34655 15.4905L8.35044 15.4877L8.36355 15.4784C8.37463 15.4705 8.39031 15.4592 8.41031 15.4446C8.4503 15.4154 8.50754 15.373 8.57958 15.3179C8.72359 15.2079 8.92708 15.047 9.17023 14.8404C9.65569 14.4277 10.3037 13.8285 10.9532 13.0816C12.2375 11.6046 13.6004 9.46642 13.6004 7.00039C13.6004 5.51518 13.0104 4.0908 11.9602 3.04059C10.91 1.99039 9.4856 1.40039 8.00039 1.40039C6.51518 1.40039 5.0908 1.99039 4.04059 3.04059C2.99039 4.0908 2.40039 5.51518 2.40039 7.00039C2.40039 9.46642 3.76328 11.6046 5.04763 13.0816C5.69713 13.8285 6.34509 14.4277 6.83055 14.8404C7.0737 15.047 7.27719 15.2079 7.4212 15.3179C7.49324 15.373 7.55049 15.4154 7.59047 15.4446C7.61047 15.4592 7.62616 15.4705 7.63723 15.4784L7.65034 15.4877L7.65424 15.4905L7.65597 15.4917ZM4.88912 3.88912C5.71428 3.06396 6.83344 2.60039 8.00039 2.60039C9.16734 2.60039 10.2865 3.06396 11.1117 3.88912C11.9368 4.71428 12.4004 5.83344 12.4004 7.00039C12.4004 9.03436 11.2633 10.8962 10.0476 12.2942C9.44713 12.9848 8.84509 13.5418 8.39305 13.926C8.24335 14.0533 8.11059 14.1612 8.00039 14.2482C7.89019 14.1612 7.75743 14.0533 7.60773 13.926C7.15569 13.5418 6.55365 12.9848 5.95315 12.2942C4.7375 10.8962 3.60039 9.03436 3.60039 7.00039C3.60039 5.83344 4.06396 4.71428 4.88912 3.88912Z" fill="#616161"/>
</g>
<defs>
<clipPath id="clip0_5869_11146">
<rect width="16" height="16" fill="white" transform="translate(0 0.5)"/>
</clipPath>
</defs>
</svg>
