<svg width="24" height="24" viewBox="0 0 24 24" fill="none" xmlns="http://www.w3.org/2000/svg">
<g clip-path="url(#clip0_3705_12415)">
<path fill-rule="evenodd" clip-rule="evenodd" d="M12.0016 5.85156C9.84765 5.85156 8.10156 7.59765 8.10156 9.75156C8.10156 11.9055 9.84765 13.6516 12.0016 13.6516C14.1555 13.6516 15.9016 11.9055 15.9016 9.75156C15.9016 7.59765 14.1555 5.85156 12.0016 5.85156ZM9.90156 9.75156C9.90156 8.59176 10.8418 7.65156 12.0016 7.65156C13.1614 7.65156 14.1016 8.59176 14.1016 9.75156C14.1016 10.9114 13.1614 11.8516 12.0016 11.8516C10.8418 11.8516 9.90156 10.9114 9.90156 9.75156Z" fill="#9E9E9E"/>
<path fill-rule="evenodd" clip-rule="evenodd" d="M11.4849 22.4885C11.4852 22.4887 11.4854 22.4889 12.0016 21.7516L11.4849 22.4885C11.7948 22.7054 12.2078 22.7058 12.5177 22.4889L12.0016 21.7516C12.5177 22.4889 12.5174 22.4891 12.5177 22.4889L12.5189 22.488L12.5208 22.4867L12.5266 22.4826L12.5463 22.4686C12.5629 22.4567 12.5864 22.4398 12.6164 22.4179C12.6764 22.3741 12.7623 22.3104 12.8703 22.2279C13.0864 22.0628 13.3916 21.8215 13.7563 21.5115C14.4845 20.8926 15.4565 19.9938 16.4307 18.8734C18.3572 16.6579 20.4016 13.4506 20.4016 9.75156C20.4016 7.52374 19.5166 5.38717 17.9413 3.81187C16.366 2.23656 14.2294 1.35156 12.0016 1.35156C9.77374 1.35156 7.63717 2.23656 6.06187 3.81187C4.48656 5.38717 3.60156 7.52374 3.60156 9.75156C3.60156 13.4506 5.6459 16.6579 7.57242 18.8734C8.54667 19.9938 9.51861 20.8926 10.2468 21.5115C10.6115 21.8215 10.9168 22.0628 11.1328 22.2279C11.2408 22.3104 11.3267 22.3741 11.3867 22.4179C11.4167 22.4398 11.4402 22.4567 11.4568 22.4686L11.4765 22.4826L11.4823 22.4867L11.4849 22.4885ZM7.33466 5.08466C8.5724 3.84692 10.2511 3.15156 12.0016 3.15156C13.752 3.15156 15.4307 3.84692 16.6685 5.08466C17.9062 6.3224 18.6016 8.00113 18.6016 9.75156C18.6016 12.8025 16.8959 15.5952 15.0724 17.6923C14.1717 18.7281 13.2686 19.5637 12.5906 20.14C12.366 20.3309 12.1669 20.4927 12.0016 20.6233C11.8363 20.4927 11.6371 20.3309 11.4126 20.14C10.7345 19.5637 9.83146 18.7281 8.93071 17.6923C7.10723 15.5952 5.40156 12.8025 5.40156 9.75156C5.40156 8.00113 6.09692 6.3224 7.33466 5.08466Z" fill="#9E9E9E"/>
</g>
<defs>
<clipPath id="clip0_3705_12415">
<rect width="24" height="24" fill="white"/>
</clipPath>
</defs>
</svg>
