<svg width="20" height="20" viewBox="0 0 20 20" fill="none" xmlns="http://www.w3.org/2000/svg">
<path fill-rule="evenodd" clip-rule="evenodd" d="M9.68377 0.0513167C9.88904 -0.0171056 10.111 -0.0171056 10.3162 0.0513167L19.3162 3.05132C19.7246 3.18743 20 3.56957 20 4C20 4.43043 19.7246 4.81257 19.3162 4.94868L15.3768 6.26183C15.7194 6.87808 15.9552 7.55179 16.0705 8.25458C16.2635 9.43164 16.1102 10.6394 15.629 11.7309C15.1693 12.7736 14.4295 13.6671 13.4931 14.3129C15.1464 15.0295 16.518 16.2434 17.5056 17.7581C17.7771 18.1744 17.6596 18.732 17.2432 19.0035C16.8268 19.275 16.2692 19.1575 15.9978 18.7412C14.6829 16.7245 12.5914 15.4188 10.0577 15.3998C10.039 15.4 10.0203 15.4001 10.0016 15.4001C9.98294 15.4001 9.96433 15.4 9.94572 15.3998C7.41196 15.4188 5.32043 16.7245 4.00558 18.7412C3.73411 19.1575 3.1765 19.275 2.76012 19.0035C2.34375 18.732 2.22628 18.1744 2.49775 17.7581C3.4853 16.2434 4.85688 15.0295 6.51013 14.3129C5.57371 13.6671 4.8338 12.7736 4.37412 11.7309C3.89297 10.6394 3.7396 9.43164 3.93267 8.25458C4.04789 7.55213 4.28354 6.87872 4.62586 6.26271L1.90156 5.35461V11.4996C1.90156 11.9967 1.49862 12.3996 1.00156 12.3996C0.504506 12.3996 0.101562 11.9967 0.101562 11.4996V4.43917C0.0361092 4.30537 0 4.15585 0 4C0 3.56957 0.27543 3.18743 0.683772 3.05132L9.68377 0.0513167ZM6.37615 6.84614C6.03738 7.35705 5.80898 7.93602 5.70893 8.54595C5.57237 9.3785 5.68085 10.2328 6.02118 11.0048C6.3615 11.7768 6.91897 12.4331 7.6257 12.8939C8.31777 13.3452 9.12372 13.5898 9.94913 13.5998C9.96663 13.5997 9.98414 13.5996 10.0017 13.5996C10.0191 13.5996 10.0366 13.5997 10.0541 13.5998C10.8795 13.5898 11.6854 13.3452 12.3774 12.8939C13.0842 12.4331 13.6416 11.7768 13.982 11.0048C14.3223 10.2328 14.4308 9.3785 14.2942 8.54595C14.1941 7.93568 13.9655 7.3564 13.6264 6.84529L10.3162 7.94868C10.111 8.01711 9.88904 8.01711 9.68377 7.94868L6.37615 6.84614ZM4.16228 4L10 5.94591L15.8377 4L10 2.05409L4.16228 4Z" fill="#424242"/>
</svg>
