<svg width="20" height="20" viewBox="0 0 20 20" fill="none" xmlns="http://www.w3.org/2000/svg">
<path fill-rule="evenodd" clip-rule="evenodd" d="M9.99807 0.0996094C13.8088 0.0996094 16.8985 3.18923 16.8985 7C16.8985 9.40594 15.6659 11.5228 13.7989 12.7578C16.223 13.6309 18.2425 15.3176 19.5879 17.4844L19.7774 17.7988L19.8194 17.8809C20.0069 18.2967 19.8525 18.7958 19.4492 19.0293C19.046 19.2626 18.5368 19.1478 18.2696 18.7783L18.2188 18.7012L18.0586 18.4336C16.3634 15.703 13.4297 13.9004 9.99807 13.9004C6.45571 13.9004 3.4439 15.8215 1.77737 18.7012C1.52835 19.1312 0.97705 19.2782 0.546903 19.0293C0.11688 18.7803 -0.0301116 18.229 0.218778 17.7988C1.56017 15.4811 3.65614 13.6727 6.19632 12.7578C4.32969 11.5228 3.09768 9.40563 3.09768 7C3.09768 3.18925 6.18733 0.0996337 9.99807 0.0996094ZM9.99807 1.90039C7.18144 1.90041 4.89847 4.18336 4.89847 7C4.89847 9.81664 7.18144 12.0996 9.99807 12.0996C12.8147 12.0996 15.0977 9.81665 15.0977 7C15.0977 4.18335 12.8147 1.90039 9.99807 1.90039Z" fill="#424242"/>
</svg>
