<svg width="19" height="18" viewBox="0 0 19 18" fill="none" xmlns="http://www.w3.org/2000/svg">
<path d="M19 9.00054C19 9.19945 18.921 9.39022 18.7804 9.53087C18.6397 9.67152 18.449 9.75054 18.25 9.75054H7.75004C7.55113 9.75054 7.36036 9.67152 7.21971 9.53087C7.07906 9.39022 7.00004 9.19945 7.00004 9.00054C7.00004 8.80163 7.07906 8.61086 7.21971 8.47021C7.36036 8.32955 7.55113 8.25054 7.75004 8.25054H18.25C18.449 8.25054 18.6397 8.32955 18.7804 8.47021C18.921 8.61086 19 8.80163 19 9.00054ZM7.75004 3.75054H18.25C18.449 3.75054 18.6397 3.67152 18.7804 3.53087C18.921 3.39021 19 3.19945 19 3.00054C19 2.80162 18.921 2.61086 18.7804 2.47021C18.6397 2.32956 18.449 2.25054 18.25 2.25054H7.75004C7.55113 2.25054 7.36036 2.32956 7.21971 2.47021C7.07906 2.61086 7.00004 2.80162 7.00004 3.00054C7.00004 3.19945 7.07906 3.39021 7.21971 3.53087C7.36036 3.67152 7.55113 3.75054 7.75004 3.75054ZM18.25 14.2505H7.75004C7.55113 14.2505 7.36036 14.3296 7.21971 14.4702C7.07906 14.6109 7.00004 14.8016 7.00004 15.0005C7.00004 15.1995 7.07906 15.3902 7.21971 15.5309C7.36036 15.6715 7.55113 15.7505 7.75004 15.7505H18.25C18.449 15.7505 18.6397 15.6715 18.7804 15.5309C18.921 15.3902 19 15.1995 19 15.0005C19 14.8016 18.921 14.6109 18.7804 14.4702C18.6397 14.3296 18.449 14.2505 18.25 14.2505ZM2.08567 2.17179L2.50004 1.96366V6.75054C2.50004 6.94945 2.57906 7.14021 2.71971 7.28087C2.86036 7.42152 3.05113 7.50054 3.25004 7.50054C3.44895 7.50054 3.63972 7.42152 3.78037 7.28087C3.92102 7.14021 4.00004 6.94945 4.00004 6.75054V0.750537C4.00013 0.622629 3.96751 0.496823 3.90527 0.385076C3.84304 0.27333 3.75326 0.179357 3.64447 0.11209C3.53567 0.044823 3.41149 0.00649747 3.28371 0.000756057C3.15593 -0.00498536 3.0288 0.0220482 2.91442 0.0792872L1.41442 0.829287C1.23639 0.9183 1.10102 1.07439 1.03807 1.26321C1.00691 1.35671 0.994463 1.45543 1.00145 1.55374C1.00844 1.65204 1.03472 1.74801 1.07879 1.83616C1.12287 1.92431 1.18387 2.00292 1.25833 2.06749C1.33278 2.13206 1.41922 2.18134 1.51272 2.21251C1.70154 2.27545 1.90764 2.2608 2.08567 2.17179ZM5.47848 11.693C5.43701 11.396 5.3359 11.1104 5.18123 10.8534C5.02657 10.5965 4.82154 10.3734 4.57848 10.1977C4.09164 9.84421 3.48696 9.69267 2.89094 9.77479C2.29492 9.85692 1.75376 10.1663 1.38067 10.6383C1.23807 10.8214 1.12513 11.0258 1.04598 11.244C1.00465 11.3379 0.98302 11.4393 0.982434 11.5418C0.981848 11.6444 1.00232 11.7461 1.04257 11.8404C1.08283 11.9348 1.14202 12.0199 1.21648 12.0905C1.29094 12.161 1.37909 12.2156 1.47547 12.2507C1.57186 12.2859 1.67443 12.3009 1.77684 12.2948C1.87925 12.2887 1.97933 12.2617 2.07088 12.2154C2.16244 12.1691 2.24352 12.1045 2.30911 12.0256C2.3747 11.9468 2.42341 11.8552 2.45223 11.7568C2.47848 11.6849 2.5158 11.6175 2.56285 11.5571C2.69516 11.3923 2.88592 11.2848 3.09547 11.257C3.30501 11.2292 3.51719 11.2833 3.68785 11.408C3.76995 11.4661 3.83938 11.5403 3.89192 11.626C3.94446 11.7117 3.97901 11.8073 3.99348 11.9068C4.00671 12.0024 4.00049 12.0996 3.9752 12.1927C3.94991 12.2859 3.90606 12.3729 3.84629 12.4487C3.84356 12.4519 3.84105 12.4554 3.83879 12.459L1.1491 16.0515C1.06576 16.163 1.01508 16.2955 1.00275 16.4341C0.990425 16.5728 1.01693 16.7121 1.0793 16.8366C1.14167 16.961 1.23745 17.0657 1.35591 17.1388C1.47437 17.2119 1.61084 17.2506 1.75004 17.2505H4.75004C4.94895 17.2505 5.13972 17.1715 5.28037 17.0309C5.42102 16.8902 5.50004 16.6994 5.50004 16.5005C5.50004 16.3016 5.42102 16.1109 5.28037 15.9702C5.13972 15.8296 4.94895 15.7505 4.75004 15.7505H3.25004L5.03879 13.3571C5.22015 13.1235 5.35255 12.8558 5.4281 12.5698C5.50364 12.2839 5.52078 11.9857 5.47848 11.693Z" fill="#212121"/>
</svg>
