<svg width="20" height="20" viewBox="0 0 20 20" fill="none" xmlns="http://www.w3.org/2000/svg">
<path fill-rule="evenodd" clip-rule="evenodd" d="M10.1064 3.37213L1.33419 12.1443C1.02534 12.4535 0.851765 12.873 0.851562 13.31V17.4997C0.851562 17.9373 1.0254 18.357 1.33484 18.6665C1.64427 18.9759 2.06396 19.1497 2.50156 19.1497H7.00156L7.01639 19.1496H18.2516C18.7486 19.1496 19.1516 18.7467 19.1516 18.2496C19.1516 17.7526 18.7486 17.3496 18.2516 17.3496H9.17411L16.6008 9.92114C16.6134 9.90985 16.6258 9.89814 16.638 9.88601C16.6501 9.87382 16.6619 9.86138 16.6732 9.84869L19.4188 7.10248C19.728 6.79308 19.9017 6.37356 19.9017 5.93614C19.9017 5.49872 19.7276 5.07877 19.4184 4.76937L15.2287 0.582501C14.9193 0.2733 14.4998 0.0996094 14.0623 0.0996094C13.6249 0.0996094 13.2054 0.2733 12.896 0.582501L10.1241 3.35442C10.1211 3.35733 10.1181 3.36026 10.1152 3.36321C10.1122 3.36617 10.1093 3.36914 10.1064 3.37213ZM10.7516 5.27246L2.65156 13.3725V17.3497H6.62871L14.7278 9.24867L10.7516 5.27246ZM12.0244 3.99967L16.0005 7.97573L18.0395 5.93618L14.0624 1.96171L12.0244 3.99967Z" fill="#424242"/>
</svg>
