<svg width="44" height="55" viewBox="0 0 44 55" fill="none" xmlns="http://www.w3.org/2000/svg">
<path fill-rule="evenodd" clip-rule="evenodd" d="M27.0996 52.3476C27.0996 53.9487 28.6987 54.9621 29.9537 54.0667C37.9574 48.3559 43.25 38.4564 43.25 27.2006C43.25 15.9448 37.9574 6.04533 29.9537 0.334587C28.6987 -0.560881 27.0996 0.452584 27.0996 2.05363C27.0996 3.65468 30.5288 11.005 30.5288 27.2006C30.5288 43.3963 27.0996 50.7466 27.0996 52.3476Z" fill="url(#paint0_linear_1688_4583)"/>
<path fill-rule="evenodd" clip-rule="evenodd" d="M11.8008 45.8635C11.8008 47.0518 12.9791 47.8039 13.9038 47.1393C19.8012 42.9009 23.7011 35.5536 23.7011 27.1997C23.7011 18.8458 19.8012 11.4985 13.9038 7.26004C12.9791 6.59544 11.8008 7.34762 11.8008 8.5359C11.8008 9.72417 13.8373 15.1795 13.8373 27.1997C13.8373 39.2199 11.8008 44.6752 11.8008 45.8635Z" fill="url(#paint1_linear_1688_4583)"/>
<path fill-rule="evenodd" clip-rule="evenodd" d="M0.75 38.2029C0.75 38.9033 1.46538 39.3467 2.02683 38.9549C5.60742 36.4565 7.97517 32.1255 7.97517 27.2011C7.97517 22.2766 5.60742 17.9456 2.02683 15.4472C1.46538 15.0554 0.75 15.4988 0.75 16.1992C0.75 16.8997 1.58792 20.1155 1.58792 27.2011C1.58792 34.2867 0.75 37.5024 0.75 38.2029Z" fill="url(#paint2_linear_1688_4583)"/>
<defs>
<linearGradient id="paint0_linear_1688_4583" x1="43.25" y1="27.2006" x2="27.0996" y2="27.2006" gradientUnits="userSpaceOnUse">
<stop stop-color="#00D7BE"/>
<stop offset="1" stop-color="#0BC4AE"/>
</linearGradient>
<linearGradient id="paint1_linear_1688_4583" x1="23.7011" y1="27.1997" x2="11.8008" y2="27.1997" gradientUnits="userSpaceOnUse">
<stop stop-color="#00D7BE"/>
<stop offset="1" stop-color="#0BC4AE"/>
</linearGradient>
<linearGradient id="paint2_linear_1688_4583" x1="7.97517" y1="27.2011" x2="0.75" y2="27.2011" gradientUnits="userSpaceOnUse">
<stop stop-color="#00D7BE"/>
<stop offset="1" stop-color="#0BC4AE"/>
</linearGradient>
</defs>
</svg>
