<svg width="18" height="18" viewBox="0 0 18 18" fill="none" xmlns="http://www.w3.org/2000/svg">
<path fill-rule="evenodd" clip-rule="evenodd" d="M11.8269 12.7818C10.7464 13.6528 9.37215 14.1742 7.87617 14.1742C4.39678 14.1742 1.57617 11.3536 1.57617 7.87422C1.57617 4.39482 4.39678 1.57422 7.87617 1.57422C11.3556 1.57422 14.1762 4.39482 14.1762 7.87422C14.1762 9.37132 13.654 10.7465 12.7818 11.8274L16.2265 15.2721C16.4901 15.5357 16.4901 15.9631 16.2265 16.2267C15.9629 16.4903 15.5355 16.4903 15.2719 16.2267L11.8269 12.7818ZM2.92617 7.87422C2.92617 5.14041 5.14236 2.92422 7.87617 2.92422C10.61 2.92422 12.8262 5.14041 12.8262 7.87422C12.8262 9.2284 12.2824 10.4556 11.4013 11.3493C11.3922 11.3575 11.3832 11.3659 11.3745 11.3747C11.3658 11.3834 11.3574 11.3922 11.3493 11.4012C10.4557 12.2812 9.22937 12.8242 7.87617 12.8242C5.14236 12.8242 2.92617 10.608 2.92617 7.87422Z" fill="#707070"/>
</svg>
