<svg width="20" height="20" viewBox="0 0 20 20" fill="none" xmlns="http://www.w3.org/2000/svg">
<g clip-path="url(#clip0_5485_22663)">
<path fill-rule="evenodd" clip-rule="evenodd" d="M14 7.625C13.125 7.625 12.3307 7.2792 11.7465 6.71681L8.31678 8.92152C8.43545 9.25899 8.5 9.62196 8.5 10C8.5 10.3787 8.43523 10.7423 8.31617 11.0802L11.7451 13.2845C12.3295 12.7213 13.1243 12.375 14 12.375C15.7949 12.375 17.25 13.8301 17.25 15.625C17.25 17.4199 15.7949 18.875 14 18.875C12.2051 18.875 10.75 17.4199 10.75 15.625C10.75 15.2467 10.8146 14.8835 10.9334 14.5459L7.50403 12.3413C6.9197 12.904 6.12526 13.25 5.25 13.25C3.45507 13.25 2 11.7949 2 10C2 8.20508 3.45507 6.75 5.25 6.75C6.12592 6.75 6.92091 7.09651 7.50536 7.65994L10.9341 5.45586C10.8149 5.11772 10.75 4.75393 10.75 4.375C10.75 2.58007 12.2051 1.125 14 1.125C15.7949 1.125 17.25 2.58007 17.25 4.375C17.25 6.16993 15.7949 7.625 14 7.625ZM12.25 4.375C12.25 3.4085 13.0335 2.625 14 2.625C14.9665 2.625 15.75 3.4085 15.75 4.375C15.75 5.3415 14.9665 6.125 14 6.125C13.393 6.125 12.8582 5.81598 12.5443 5.34668C12.5394 5.33842 12.5344 5.33021 12.5292 5.32207C12.5236 5.31343 12.5179 5.30493 12.512 5.29659C12.3459 5.02894 12.25 4.71317 12.25 4.375ZM12.5029 14.7183C12.3424 14.9827 12.25 15.2931 12.25 15.625C12.25 16.5915 13.0335 17.375 14 17.375C14.9665 17.375 15.75 16.5915 15.75 15.625C15.75 14.6585 14.9665 13.875 14 13.875C13.3984 13.875 12.8677 14.1786 12.5527 14.6409C12.5453 14.6541 12.5374 14.6672 12.5292 14.6801C12.5207 14.6932 12.512 14.7059 12.5029 14.7183ZM6.72207 9.05506C6.7163 9.04609 6.71075 9.03705 6.70541 9.02793C6.39149 8.55885 5.85681 8.25 5.25 8.25C4.2835 8.25 3.5 9.0335 3.5 10C3.5 10.9665 4.2835 11.75 5.25 11.75C6.2165 11.75 7 10.9665 7 10C7 9.66322 6.90487 9.34866 6.74001 9.08173C6.73387 9.07301 6.72789 9.06412 6.72207 9.05506Z" fill="#424242"/>
</g>
<defs>
<clipPath id="clip0_5485_22663">
<rect width="20" height="20" fill="white"/>
</clipPath>
</defs>
</svg>
