<svg width="18" height="18" viewBox="0 0 18 18" fill="none" xmlns="http://www.w3.org/2000/svg">
<path fill-rule="evenodd" clip-rule="evenodd" d="M8.78772 1.60886C8.92627 1.56267 9.07607 1.56267 9.21463 1.60886L15.9646 3.85886C16.2403 3.95073 16.4262 4.20868 16.4262 4.49922C16.4262 4.78976 16.2403 5.0477 15.9646 5.13958L12.9953 6.12936C13.2725 6.60921 13.4623 7.1375 13.5528 7.68972C13.6977 8.57251 13.5826 9.47836 13.2218 10.2969C12.8683 11.0988 12.2939 11.7829 11.5662 12.2698C12.9957 12.8265 14.183 13.8137 15.0323 15.0642C15.2417 15.3726 15.1615 15.7924 14.8531 16.0018C14.5447 16.2113 14.1249 16.1311 13.9155 15.8227C12.8049 14.1875 11.0219 13.1184 8.84889 13.1184C6.67588 13.1184 4.89285 14.1875 3.78229 15.8227C3.57284 16.1311 3.15305 16.2113 2.84466 16.0018C2.53626 15.7924 2.45605 15.3726 2.6655 15.0642C3.55363 13.7565 4.81141 12.7367 6.32928 12.1961C5.65218 11.715 5.11658 11.0591 4.78059 10.2969C4.41973 9.47836 4.3047 8.57251 4.4495 7.68972C4.54008 7.1375 4.72989 6.60922 5.00705 6.12936L2.92617 5.43573V10.1242C2.92617 10.497 2.62396 10.7992 2.25117 10.7992C1.87838 10.7992 1.57617 10.497 1.57617 10.1242V4.49922C1.57617 4.32796 1.63995 4.1716 1.74505 4.05259C1.77699 4.01638 1.81287 3.98352 1.8522 3.9547C1.91219 3.91067 1.97972 3.87631 2.05249 3.85393L8.78772 1.60886ZM6.32557 5.14584C6.3141 5.14166 6.30254 5.13781 6.29091 5.13428L4.38571 4.49922L9.00117 2.96073L13.6166 4.49922L11.7114 5.1343C11.6998 5.13782 11.6883 5.14166 11.6768 5.14582L9.00117 6.03771L6.32557 5.14584ZM6.32593 6.56898C6.04769 6.96761 5.86097 7.42497 5.7817 7.90824C5.67928 8.53265 5.76064 9.17337 6.01588 9.75237C6.27113 10.3314 6.68923 10.8236 7.21927 11.1692C7.74931 11.5148 8.36842 11.6988 9.00117 11.6988C9.63393 11.6988 10.253 11.5148 10.7831 11.1692C11.3131 10.8236 11.7312 10.3314 11.9865 9.75237C12.2417 9.17337 12.3231 8.53265 12.2206 7.90824C12.1414 7.42497 11.9547 6.96761 11.6764 6.56898L9.21463 7.38958C9.07607 7.43576 8.92627 7.43576 8.78772 7.38958L6.32593 6.56898Z" fill="#212121"/>
</svg>
