<svg width="14" height="18" viewBox="0 0 14 18" fill="none" xmlns="http://www.w3.org/2000/svg">
<path d="M13.75 17C13.75 17.1989 13.671 17.3897 13.5303 17.5303C13.3897 17.671 13.1989 17.75 13 17.75H1C0.801088 17.75 0.610322 17.671 0.46967 17.5303C0.329018 17.3897 0.25 17.1989 0.25 17C0.25 16.8011 0.329018 16.6103 0.46967 16.4697C0.610322 16.329 0.801088 16.25 1 16.25H13C13.1989 16.25 13.3897 16.329 13.5303 16.4697C13.671 16.6103 13.75 16.8011 13.75 17ZM7 14.75C8.59077 14.7483 10.1159 14.1156 11.2407 12.9907C12.3656 11.8659 12.9983 10.3408 13 8.75V1.25C13 1.05109 12.921 0.860322 12.7803 0.71967C12.6397 0.579018 12.4489 0.5 12.25 0.5C12.0511 0.5 11.8603 0.579018 11.7197 0.71967C11.579 0.860322 11.5 1.05109 11.5 1.25V8.75C11.5 9.94347 11.0259 11.0881 10.182 11.932C9.33807 12.7759 8.19347 13.25 7 13.25C5.80653 13.25 4.66193 12.7759 3.81802 11.932C2.97411 11.0881 2.5 9.94347 2.5 8.75V1.25C2.5 1.05109 2.42098 0.860322 2.28033 0.71967C2.13968 0.579018 1.94891 0.5 1.75 0.5C1.55109 0.5 1.36032 0.579018 1.21967 0.71967C1.07902 0.860322 1 1.05109 1 1.25V8.75C1.00174 10.3408 1.63444 11.8659 2.75928 12.9907C3.88412 14.1156 5.40923 14.7483 7 14.75Z" fill="#212121"/>
</svg>
