<svg width="18" height="18" viewBox="0 0 18 18" fill="none" xmlns="http://www.w3.org/2000/svg">
<g clip-path="url(#clip0_3798_17791)">
<path fill-rule="evenodd" clip-rule="evenodd" d="M8.99922 1.57812C6.14115 1.57812 3.82422 3.89505 3.82422 6.75313C3.82422 8.55711 4.74728 10.1455 6.14686 11.0718C4.24224 11.758 2.67098 13.1145 1.66511 14.8525C1.47838 15.1752 1.58857 15.5881 1.91123 15.7748C2.23388 15.9616 2.64682 15.8514 2.83355 15.5287C4.08346 13.369 6.34252 11.9281 8.99933 11.9281C11.6561 11.9281 13.9152 13.369 15.1651 15.5287C15.3518 15.8514 15.7648 15.9616 16.0874 15.7748C16.4101 15.5881 16.5203 15.1752 16.3335 14.8525C15.3277 13.1144 13.7563 11.758 11.8517 11.0717C13.2512 10.1454 14.1742 8.55708 14.1742 6.75313C14.1742 3.89505 11.8573 1.57812 8.99922 1.57812ZM5.17422 6.75313C5.17422 4.64064 6.88673 2.92812 8.99922 2.92812C11.1117 2.92812 12.8242 4.64064 12.8242 6.75313C12.8242 8.86561 11.1117 10.5781 8.99922 10.5781C6.88673 10.5781 5.17422 8.86561 5.17422 6.75313Z" fill="#212121"/>
</g>
<defs>
<clipPath id="clip0_3798_17791">
<rect width="18" height="18" fill="white"/>
</clipPath>
</defs>
</svg>
